<?xml version="1.0" encoding="UTF-8"?>
<svg width="512px" height="618px" viewBox="0 0 512 618" version="1.1" xmlns="http://www.w3.org/2000/svg" xmlns:xlink="http://www.w3.org/1999/xlink">
    <title>Group</title>
    <g id="Page-1" stroke="none" stroke-width="1" fill="none" fill-rule="evenodd">
        <g id="Group">
            <path d="M256,0 C326.686,0 390.69,28.658 437.016,74.984 C483.342,121.31 512,185.314 512,256 C512,326.686 483.342,390.69 437.016,437.016 C434.142643,439.889357 431.201278,442.694743 428.194529,445.429538 L255.862175,617.760191 L79.9412173,441.841834 C78.2672278,440.255433 76.6146622,438.646662 74.984,437.016 C28.658,390.69 0,326.686 0,256 C0,185.314 28.658,121.31 74.984,74.984 C121.31,28.658 185.314,0 256,0 Z" id="Combined-Shape" fill="#000000"></path>
            <path d="M256,29.464 C381.114,29.464 482.536,130.886 482.536,256 C482.536,381.114 381.114,482.536 256,482.536 C130.886,482.536 29.464,381.114 29.464,256 C29.464,130.886 130.886,29.464 256,29.464 Z" id="Path" fill="#FEC901"></path>
            <path d="M256,341.492 C270.453,341.492 282.168,353.209 282.168,367.663 C282.168,382.116 270.453,393.83 256,393.83 C241.547,393.83 229.829,382.116 229.829,367.663 C229.829,353.209 241.547,341.492 256,341.492 Z M275.55,302.281 C274.67,324.344 237.304,324.373 236.45,302.274 C232.672,264.47 223.007,174.721 223.315,139.2 C223.626,128.254 232.698,121.774 244.304,119.302 C247.882,118.537 251.817,118.166 255.781,118.169968 C259.767,118.177 263.713,118.57 267.295,119.335 C279.283,121.889 288.696,128.636 288.693001,139.779 L288.648,140.896 L275.55,302.281 L275.55,302.281 Z" id="Shape" fill="#000000"></path>
        </g>
    </g>
</svg>
