<svg xmlns="http://www.w3.org/2000/svg" viewBox="0 0 500 500">
  <path fill="#fff" d="M396.9 41.9C355.6 15.2 307.4 0 256.5 0 189.1 0 126.1 25.9 77.4 71.8 28.7 117.7 0 178.7 0 243.5c0 64.8 25.3 125.8 71.2 171.7 45.9 45.9 106.9 71.2 171.7 71.2 64.8 0 125.8-25.3 171.7-71.2 45.9-45.9 71.2-106.9 71.2-171.7 0-50.9-15.2-99.1-41.9-140.4l-47.2 47.2v140.9c0 64.8-52.7 117.5-117.5 117.5s-117.5-52.7-117.5-117.5V151.3c0-32.4 26.3-58.7 58.7-58.7s58.7 26.3 58.7 58.7v140.9c0 16.2-13.1 29.3-29.3 29.3s-29.3-13.1-29.3-29.3V151.3h-58.7v140.9c0 48.6 39.4 88 88 88s88-39.4 88-88V151.3c0-64.8-52.7-117.5-117.5-117.5S91.2 86.5 91.2 151.3v140.9c0 97.2 79.1 176.3 176.3 176.3s176.3-79.1 176.3-176.3V151.3L396.9 41.9z"/>
</svg>
