<?xml version="1.0" encoding="UTF-8"?>
<svg width="4332px" height="914px" viewBox="0 0 4332 914" version="1.1" xmlns="http://www.w3.org/2000/svg" xmlns:xlink="http://www.w3.org/1999/xlink">
    <title>Instagram post - 29</title>
    <g id="Instagram-post---29" stroke="none" stroke-width="1" fill="none" fill-rule="evenodd">
        <g id="Group" transform="translate(60.9693, 56)" fill="#FFFFFF" fill-rule="nonzero">
            <path d="M531.030651,0 C730.405446,0 892.030651,161.625205 892.030651,361 C892.030651,560.374795 730.405446,722 531.030651,722 C465.291938,722 403.657288,704.428413 350.567272,673.725809 L405.250574,619.042004 C443.232077,637.590388 485.915717,648 531.030651,648 C689.536375,648 818.030651,519.505723 818.030651,361 C818.030651,202.494277 689.536375,74 531.030651,74 C372.524928,74 244.030651,202.494277 244.030651,361 C244.030651,406.132219 254.448241,448.831279 273.009969,486.823729 L218.329321,541.5057 C187.611578,488.406119 170.030651,426.756182 170.030651,361 C170.030651,161.625205 331.655857,0 531.030651,0 Z" id="Combined-Shape"></path>
            <path d="M571.730882,266.133399 L623.623354,318.88917 L237.226702,700.61499 L233.513357,704.27738 C210.166625,727.303745 172.658216,727.321636 149.289528,704.317554 L140.228363,695.397764 L140.228363,695.397764 L0,554.370673 L52.3259018,502.044771 L191.850951,641.569768 L571.730882,266.133399 Z" id="Path-2"></path>
            <g id="Preloop.AI" transform="translate(1190.8507, 229.34)">
                <path d="M65.55,235.98 L65.55,55.2 L193.89,55.2 C231.15,55.2 258.405,62.905 275.655,78.315 C292.905,93.725 301.53,116.15 301.53,145.59 C301.53,175.03 292.905,197.57 275.655,213.21 C258.405,228.85 231.15,236.44 193.89,235.98 L65.55,235.98 Z M0,0 L0,492.66 L65.55,492.66 L65.55,291.18 L215.97,291.18 C265.65,291.64 303.255,278.99 328.785,253.23 C354.315,227.47 367.08,191.59 367.08,145.59 C367.08,99.59 354.315,63.825 328.785,38.295 C303.255,12.765 265.65,0 215.97,0 L0,0 Z" id="Shape"></path>
                <path d="M432.39,135.93 L432.39,492.66 L491.04,492.66 L491.04,333.96 C491.04,310.96 493.34,290.605 497.94,272.895 C502.54,255.185 509.9,240.12 520.02,227.7 C530.14,215.28 543.48,205.85 560.04,199.41 C576.6,192.97 596.61,189.75 620.07,189.75 L620.07,127.65 C588.33,126.73 562.11,133.17 541.41,146.97 C520.71,160.77 503.23,182.16 488.97,211.14 L487.59,211.14 L487.59,135.93 L432.39,135.93 Z" id="Path"></path>
                <path d="M911.94,280.14 L707.01,280.14 C707.93,266.34 710.92,253.345 715.98,241.155 C721.04,228.965 727.94,218.27 736.68,209.07 C745.42,199.87 755.885,192.625 768.075,187.335 C780.265,182.045 793.95,179.4 809.13,179.4 C823.85,179.4 837.305,182.045 849.495,187.335 C861.685,192.625 872.265,199.755 881.235,208.725 C890.205,217.695 897.335,228.39 902.625,240.81 C907.915,253.23 911.02,266.34 911.94,280.14 Z M968.52,379.5 L910.56,379.5 C905.5,402.96 895.035,420.44 879.165,431.94 C863.295,443.44 842.94,449.19 818.1,449.19 C798.78,449.19 781.99,445.97 767.73,439.53 C753.47,433.09 741.74,424.465 732.54,413.655 C723.34,402.845 716.67,390.425 712.53,376.395 C708.39,362.365 706.55,347.53 707.01,331.89 L974.04,331.89 C974.96,310.27 973.005,287.5 968.175,263.58 C963.345,239.66 954.605,217.58 941.955,197.34 C929.305,177.1 912.515,160.425 891.585,147.315 C870.655,134.205 844.32,127.65 812.58,127.65 C788.2,127.65 765.775,132.25 745.305,141.45 C724.835,150.65 707.125,163.53 692.175,180.09 C677.225,196.65 665.61,216.2 657.33,238.74 C649.05,261.28 644.91,286.12 644.91,313.26 C645.83,340.4 649.855,365.47 656.985,388.47 C664.115,411.47 674.81,431.25 689.07,447.81 C703.33,464.37 720.925,477.25 741.855,486.45 C762.785,495.65 787.51,500.25 816.03,500.25 C856.51,500.25 890.09,490.13 916.77,469.89 C943.45,449.65 960.7,419.52 968.52,379.5 Z" id="Shape"></path>
                <polygon id="Path" points="1033.21 0 1033.21 492.66 1091.86 492.66 1091.86 0"></polygon>
                <path d="M1215.72,314.64 C1215.72,293.02 1218.595,273.815 1224.345,257.025 C1230.095,240.235 1238.03,226.09 1248.15,214.59 C1258.27,203.09 1270.115,194.35 1283.685,188.37 C1297.255,182.39 1311.63,179.4 1326.81,179.4 C1341.99,179.4 1356.365,182.39 1369.935,188.37 C1383.505,194.35 1395.35,203.09 1405.47,214.59 C1415.59,226.09 1423.525,240.235 1429.275,257.025 C1435.025,273.815 1437.9,293.02 1437.9,314.64 C1437.9,336.26 1435.025,355.465 1429.275,372.255 C1423.525,389.045 1415.59,403.075 1405.47,414.345 C1395.35,425.615 1383.505,434.24 1369.935,440.22 C1356.365,446.2 1341.99,449.19 1326.81,449.19 C1311.63,449.19 1297.255,446.2 1283.685,440.22 C1270.115,434.24 1258.27,425.615 1248.15,414.345 C1238.03,403.075 1230.095,389.045 1224.345,372.255 C1218.595,355.465 1215.72,336.26 1215.72,314.64 Z M1153.62,314.64 C1153.62,340.86 1157.3,365.24 1164.66,387.78 C1172.02,410.32 1183.06,429.985 1197.78,446.775 C1212.5,463.565 1230.67,476.675 1252.29,486.105 C1273.91,495.535 1298.75,500.25 1326.81,500.25 C1355.33,500.25 1380.285,495.535 1401.675,486.105 C1423.065,476.675 1441.12,463.565 1455.84,446.775 C1470.56,429.985 1481.6,410.32 1488.96,387.78 C1496.32,365.24 1500,340.86 1500,314.64 C1500,288.42 1496.32,263.925 1488.96,241.155 C1481.6,218.385 1470.56,198.605 1455.84,181.815 C1441.12,165.025 1423.065,151.8 1401.675,142.14 C1380.285,132.48 1355.33,127.65 1326.81,127.65 C1298.75,127.65 1273.91,132.48 1252.29,142.14 C1230.67,151.8 1212.5,165.025 1197.78,181.815 C1183.06,198.605 1172.02,218.385 1164.66,241.155 C1157.3,263.925 1153.62,288.42 1153.62,314.64 Z" id="Shape"></path>
                <path d="M1601.78,314.64 C1601.78,293.02 1604.655,273.815 1610.405,257.025 C1616.155,240.235 1624.09,226.09 1634.21,214.59 C1644.33,203.09 1656.175,194.35 1669.745,188.37 C1683.315,182.39 1697.69,179.4 1712.87,179.4 C1728.05,179.4 1742.425,182.39 1755.995,188.37 C1769.565,194.35 1781.41,203.09 1791.53,214.59 C1801.65,226.09 1809.585,240.235 1815.335,257.025 C1821.085,273.815 1823.96,293.02 1823.96,314.64 C1823.96,336.26 1821.085,355.465 1815.335,372.255 C1809.585,389.045 1801.65,403.075 1791.53,414.345 C1781.41,425.615 1769.565,434.24 1755.995,440.22 C1742.425,446.2 1728.05,449.19 1712.87,449.19 C1697.69,449.19 1683.315,446.2 1669.745,440.22 C1656.175,434.24 1644.33,425.615 1634.21,414.345 C1624.09,403.075 1616.155,389.045 1610.405,372.255 C1604.655,355.465 1601.78,336.26 1601.78,314.64 Z M1539.68,314.64 C1539.68,340.86 1543.36,365.24 1550.72,387.78 C1558.08,410.32 1569.12,429.985 1583.84,446.775 C1598.56,463.565 1616.73,476.675 1638.35,486.105 C1659.97,495.535 1684.81,500.25 1712.87,500.25 C1741.39,500.25 1766.345,495.535 1787.735,486.105 C1809.125,476.675 1827.18,463.565 1841.9,446.775 C1856.62,429.985 1867.66,410.32 1875.02,387.78 C1882.38,365.24 1886.06,340.86 1886.06,314.64 C1886.06,288.42 1882.38,263.925 1875.02,241.155 C1867.66,218.385 1856.62,198.605 1841.9,181.815 C1827.18,165.025 1809.125,151.8 1787.735,142.14 C1766.345,132.48 1741.39,127.65 1712.87,127.65 C1684.81,127.65 1659.97,132.48 1638.35,142.14 C1616.73,151.8 1598.56,165.025 1583.84,181.815 C1569.12,198.605 1558.08,218.385 1550.72,241.155 C1543.36,263.925 1539.68,288.42 1539.68,314.64 Z" id="Shape"></path>
                <path d="M1947.13,135.93 L1947.13,628.59 L2005.78,628.59 L2005.78,445.05 L2007.16,445.05 C2013.6,455.63 2021.535,464.485 2030.965,471.615 C2040.395,478.745 2050.4,484.38 2060.98,488.52 C2071.56,492.66 2082.255,495.65 2093.065,497.49 C2103.875,499.33 2113.65,500.25 2122.39,500.25 C2149.53,500.25 2173.335,495.42 2193.805,485.76 C2214.275,476.1 2231.295,462.875 2244.865,446.085 C2258.435,429.295 2268.555,409.63 2275.225,387.09 C2281.895,364.55 2285.23,340.63 2285.23,315.33 C2285.23,290.03 2281.78,266.11 2274.88,243.57 C2267.98,221.03 2257.745,201.135 2244.175,183.885 C2230.605,166.635 2213.585,152.95 2193.115,142.83 C2172.645,132.71 2148.61,127.65 2121.01,127.65 C2096.17,127.65 2073.4,132.135 2052.7,141.105 C2032,150.075 2016.82,164.45 2007.16,184.23 L2005.78,184.23 L2005.78,135.93 L1947.13,135.93 Z M2223.13,311.19 C2223.13,328.67 2221.29,345.69 2217.61,362.25 C2213.93,378.81 2207.95,393.53 2199.67,406.41 C2191.39,419.29 2180.465,429.64 2166.895,437.46 C2153.325,445.28 2136.42,449.19 2116.18,449.19 C2095.94,449.19 2078.69,445.395 2064.43,437.805 C2050.17,430.215 2038.555,420.21 2029.585,407.79 C2020.615,395.37 2014.06,380.995 2009.92,364.665 C2005.78,348.335 2003.71,331.43 2003.71,313.95 C2003.71,297.39 2005.665,281.06 2009.575,264.96 C2013.485,248.86 2019.81,234.485 2028.55,221.835 C2037.29,209.185 2048.56,198.95 2062.36,191.13 C2076.16,183.31 2092.95,179.4 2112.73,179.4 C2131.59,179.4 2148.035,183.08 2162.065,190.44 C2176.095,197.8 2187.595,207.69 2196.565,220.11 C2205.535,232.53 2212.205,246.675 2216.575,262.545 C2220.945,278.415 2223.13,294.63 2223.13,311.19 Z" id="Shape"></path>
                <polygon id="Path" points="2346.34 416.07 2346.34 492.66 2422.93 492.66 2422.93 416.07"></polygon>
                <path d="M2619.58,289.11 L2703.07,59.34 L2704.45,59.34 L2786.56,289.11 L2619.58,289.11 Z M2668.57,0 L2476.75,492.66 L2543.68,492.66 L2598.88,344.31 L2807.26,344.31 L2861.08,492.66 L2933.53,492.66 L2741.02,0 L2668.57,0 Z" id="Shape"></path>
                <polygon id="Path" points="2969.59 0 2969.59 492.66 3035.14 492.66 3035.14 0"></polygon>
            </g>
        </g>
    </g>
</svg>