<?xml version="1.0" encoding="UTF-8" standalone="no"?>
<svg
   width="3700px"
   height="1000px"
   viewBox="0 0 3700 1000"
   version="1.1"
   id="svg4"
   sodipodi:docname="preloop_logo_dark.svg"
   inkscape:version="1.4.2 (ebf0e940, 2025-05-08)"
   xmlns:inkscape="http://www.inkscape.org/namespaces/inkscape"
   xmlns:sodipodi="http://sodipodi.sourceforge.net/DTD/sodipodi-0.dtd"
   xmlns="http://www.w3.org/2000/svg"
   xmlns:svg="http://www.w3.org/2000/svg">
  <defs
     id="defs4" />
  <sodipodi:namedview
     id="namedview4"
     pagecolor="#ffffff"
     bordercolor="#000000"
     borderopacity="0.25"
     inkscape:showpageshadow="2"
     inkscape:pageopacity="0.0"
     inkscape:pagecheckerboard="0"
     inkscape:deskcolor="#d1d1d1"
     inkscape:zoom="1"
     inkscape:cx="685.5"
     inkscape:cy="622.5"
     inkscape:window-width="1792"
     inkscape:window-height="1044"
     inkscape:window-x="0"
     inkscape:window-y="25"
     inkscape:window-maximized="0"
     inkscape:current-layer="svg4" />
  <title
     id="title1">Instagram post - 29</title>
  <path
     d="m 591.99995,170 c 199.3748,0 361,161.6252 361,361 0,199.37479 -161.6252,361 -361,361 -65.73871,0 -127.37336,-17.57159 -180.46338,-48.27419 L 466.21987,789.042 C 504.20138,807.59039 546.88502,818 591.99995,818 c 158.50573,0 287,-128.49428 287,-287 0,-158.50572 -128.49427,-287 -287,-287 -158.50572,0 -287,128.49428 -287,287 0,45.13222 10.41759,87.83128 28.97932,125.82373 L 279.29862,711.5057 C 248.58088,658.40612 230.99995,596.75618 230.99995,531 c 0,-199.3748 161.62521,-361 361,-361 z"
     id="Combined-Shape"
     style="fill:#ffffff;fill-rule:nonzero;stroke:none;stroke-width:1" />
  <path
     d="m 632.70018,436.1334 51.89247,52.75577 -386.39665,381.72582 -3.71334,3.66239 c -23.34674,23.02637 -60.85514,23.04426 -84.22383,0.0402 l -9.06117,-8.91979 v 0 L 60.9693,724.37067 l 52.3259,-52.3259 139.52505,139.525 z"
     id="Path-2"
     style="fill:#ffffff;fill-rule:nonzero;stroke:none;stroke-width:1" />
  <path
     d="M 1317.37,521.32 V 340.54 h 128.34 c 37.26,0 64.515,7.705 81.765,23.115 17.25,15.41 25.875,37.835 25.875,67.275 0,29.44 -8.625,51.98 -25.875,67.62 -17.25,15.64 -44.505,23.23 -81.765,22.77 z M 1251.82,285.34 V 778 h 65.55 V 576.52 h 150.42 c 49.68,0.46 87.285,-12.19 112.815,-37.95 25.53,-25.76 38.295,-61.64 38.295,-107.64 0,-46 -12.765,-81.765 -38.295,-107.295 -25.53,-25.53 -63.135,-38.295 -112.815,-38.295 z"
     id="Shape"
     style="fill:#ffffff;fill-rule:nonzero;stroke:none;stroke-width:1" />
  <path
     d="M 1684.21,421.27 V 778 h 58.65 V 619.3 c 0,-23 2.3,-43.355 6.9,-61.065 4.6,-17.71 11.96,-32.775 22.08,-45.195 10.12,-12.42 23.46,-21.85 40.02,-28.29 16.56,-6.44 36.57,-9.66 60.03,-9.66 v -62.1 c -31.74,-0.92 -57.96,5.52 -78.66,19.32 -20.7,13.8 -38.18,35.19 -52.44,64.17 h -1.38 v -75.21 z"
     id="Path"
     style="fill:#ffffff;fill-rule:nonzero;stroke:none;stroke-width:1" />
  <path
     d="m 2163.76,565.48 h -204.93 c 0.92,-13.8 3.91,-26.795 8.97,-38.985 5.06,-12.19 11.96,-22.885 20.7,-32.085 8.74,-9.2 19.205,-16.445 31.395,-21.735 12.19,-5.29 25.875,-7.935 41.055,-7.935 14.72,0 28.175,2.645 40.365,7.935 12.19,5.29 22.77,12.42 31.74,21.39 8.97,8.97 16.1,19.665 21.39,32.085 5.29,12.42 8.395,25.53 9.315,39.33 z m 56.58,99.36 h -57.96 c -5.06,23.46 -15.525,40.94 -31.395,52.44 -15.87,11.5 -36.225,17.25 -61.065,17.25 -19.32,0 -36.11,-3.22 -50.37,-9.66 -14.26,-6.44 -25.99,-15.065 -35.19,-25.875 -9.2,-10.81 -15.87,-23.23 -20.01,-37.26 -4.14,-14.03 -5.98,-28.865 -5.52,-44.505 h 267.03 c 0.92,-21.62 -1.035,-44.39 -5.865,-68.31 -4.83,-23.92 -13.57,-46 -26.22,-66.24 -12.65,-20.24 -29.44,-36.915 -50.37,-50.025 -20.93,-13.11 -47.265,-19.665 -79.005,-19.665 -24.38,0 -46.805,4.6 -67.275,13.8 -20.47,9.2 -38.18,22.08 -53.13,38.64 -14.95,16.56 -26.565,36.11 -34.845,58.65 -8.28,22.54 -12.42,47.38 -12.42,74.52 0.92,27.14 4.945,52.21 12.075,75.21 7.13,23 17.825,42.78 32.085,59.34 14.26,16.56 31.855,29.44 52.785,38.64 20.93,9.2 45.655,13.8 74.175,13.8 40.48,0 74.06,-10.12 100.74,-30.36 26.68,-20.24 43.93,-50.37 51.75,-90.39 z"
     id="path1"
     style="fill:#ffffff;fill-rule:nonzero;stroke:none;stroke-width:1" />
  <polygon
     id="polygon1"
     points="1091.86,492.66 1091.86,0 1033.21,0 1033.21,492.66 "
     transform="translate(1251.82,285.34)"
     style="fill:#ffffff;fill-rule:nonzero;stroke:none;stroke-width:1" />
  <path
     d="m 2467.54,599.98 c 0,-21.62 2.875,-40.825 8.625,-57.615 5.75,-16.79 13.685,-30.935 23.805,-42.435 10.12,-11.5 21.965,-20.24 35.535,-26.22 13.57,-5.98 27.945,-8.97 43.125,-8.97 15.18,0 29.555,2.99 43.125,8.97 13.57,5.98 25.415,14.72 35.535,26.22 10.12,11.5 18.055,25.645 23.805,42.435 5.75,16.79 8.625,35.995 8.625,57.615 0,21.62 -2.875,40.825 -8.625,57.615 -5.75,16.79 -13.685,30.82 -23.805,42.09 -10.12,11.27 -21.965,19.895 -35.535,25.875 -13.57,5.98 -27.945,8.97 -43.125,8.97 -15.18,0 -29.555,-2.99 -43.125,-8.97 -13.57,-5.98 -25.415,-14.605 -35.535,-25.875 -10.12,-11.27 -18.055,-25.3 -23.805,-42.09 -5.75,-16.79 -8.625,-35.995 -8.625,-57.615 z m -62.1,0 c 0,26.22 3.68,50.6 11.04,73.14 7.36,22.54 18.4,42.205 33.12,58.995 14.72,16.79 32.89,29.9 54.51,39.33 21.62,9.43 46.46,14.145 74.52,14.145 28.52,0 53.475,-4.715 74.865,-14.145 21.39,-9.43 39.445,-22.54 54.165,-39.33 14.72,-16.79 25.76,-36.455 33.12,-58.995 7.36,-22.54 11.04,-46.92 11.04,-73.14 0,-26.22 -3.68,-50.715 -11.04,-73.485 -7.36,-22.77 -18.4,-42.55 -33.12,-59.34 -14.72,-16.79 -32.775,-30.015 -54.165,-39.675 -21.39,-9.66 -46.345,-14.49 -74.865,-14.49 -28.06,0 -52.9,4.83 -74.52,14.49 -21.62,9.66 -39.79,22.885 -54.51,39.675 -14.72,16.79 -25.76,36.57 -33.12,59.34 -7.36,22.77 -11.04,47.265 -11.04,73.485 z"
     id="path2"
     style="fill:#ffffff;fill-rule:nonzero;stroke:none;stroke-width:1" />
  <path
     d="m 2853.6,599.98 c 0,-21.62 2.875,-40.825 8.625,-57.615 5.75,-16.79 13.685,-30.935 23.805,-42.435 10.12,-11.5 21.965,-20.24 35.535,-26.22 13.57,-5.98 27.945,-8.97 43.125,-8.97 15.18,0 29.555,2.99 43.125,8.97 13.57,5.98 25.415,14.72 35.535,26.22 10.12,11.5 18.055,25.645 23.805,42.435 5.75,16.79 8.625,35.995 8.625,57.615 0,21.62 -2.875,40.825 -8.625,57.615 -5.75,16.79 -13.685,30.82 -23.805,42.09 -10.12,11.27 -21.965,19.895 -35.535,25.875 -13.57,5.98 -27.945,8.97 -43.125,8.97 -15.18,0 -29.555,-2.99 -43.125,-8.97 -13.57,-5.98 -25.415,-14.605 -35.535,-25.875 -10.12,-11.27 -18.055,-25.3 -23.805,-42.09 -5.75,-16.79 -8.625,-35.995 -8.625,-57.615 z m -62.1,0 c 0,26.22 3.68,50.6 11.04,73.14 7.36,22.54 18.4,42.205 33.12,58.995 14.72,16.79 32.89,29.9 54.51,39.33 21.62,9.43 46.46,14.145 74.52,14.145 28.52,0 53.475,-4.715 74.865,-14.145 21.39,-9.43 39.445,-22.54 54.165,-39.33 14.72,-16.79 25.76,-36.455 33.12,-58.995 7.36,-22.54 11.04,-46.92 11.04,-73.14 0,-26.22 -3.68,-50.715 -11.04,-73.485 -7.36,-22.77 -18.4,-42.55 -33.12,-59.34 -14.72,-16.79 -32.775,-30.015 -54.165,-39.675 -21.39,-9.66 -46.345,-14.49 -74.865,-14.49 -28.06,0 -52.9,4.83 -74.52,14.49 -21.62,9.66 -39.79,22.885 -54.51,39.675 -14.72,16.79 -25.76,36.57 -33.12,59.34 -7.36,22.77 -11.04,47.265 -11.04,73.485 z"
     id="path3"
     style="fill:#ffffff;fill-rule:nonzero;stroke:none;stroke-width:1" />
  <path
     d="m 3198.95,421.27 v 492.66 h 58.65 V 730.39 h 1.38 c 6.44,10.58 14.375,19.435 23.805,26.565 9.43,7.13 19.435,12.765 30.015,16.905 10.58,4.14 21.275,7.13 32.085,8.97 10.81,1.84 20.585,2.76 29.325,2.76 27.14,0 50.945,-4.83 71.415,-14.49 20.47,-9.66 37.49,-22.885 51.06,-39.675 13.57,-16.79 23.69,-36.455 30.36,-58.995 6.67,-22.54 10.005,-46.46 10.005,-71.76 0,-25.3 -3.45,-49.22 -10.35,-71.76 -6.9,-22.54 -17.135,-42.435 -30.705,-59.685 -13.57,-17.25 -30.59,-30.935 -51.06,-41.055 -20.47,-10.12 -44.505,-15.18 -72.105,-15.18 -24.84,0 -47.61,4.485 -68.31,13.455 -20.7,8.97 -35.88,23.345 -45.54,43.125 h -1.38 v -48.3 z m 276,175.26 c 0,17.48 -1.84,34.5 -5.52,51.06 -3.68,16.56 -9.66,31.28 -17.94,44.16 -8.28,12.88 -19.205,23.23 -32.775,31.05 -13.57,7.82 -30.475,11.73 -50.715,11.73 -20.24,0 -37.49,-3.795 -51.75,-11.385 -14.26,-7.59 -25.875,-17.595 -34.845,-30.015 -8.97,-12.42 -15.525,-26.795 -19.665,-43.125 -4.14,-16.33 -6.21,-33.235 -6.21,-50.715 0,-16.56 1.955,-32.89 5.865,-48.99 3.91,-16.1 10.235,-30.475 18.975,-43.125 8.74,-12.65 20.01,-22.885 33.81,-30.705 13.8,-7.82 30.59,-11.73 50.37,-11.73 18.86,0 35.305,3.68 49.335,11.04 14.03,7.36 25.53,17.25 34.5,29.67 8.97,12.42 15.64,26.565 20.01,42.435 4.37,15.87 6.555,32.085 6.555,48.645 z"
     id="path4"
     style="fill:#ffffff;fill-rule:nonzero;stroke:none;stroke-width:1" />
</svg>
